<svg width="28" height="28" viewBox="0 0 28 28" fill="none" xmlns="http://www.w3.org/2000/svg">
<path d="M23.8984 0H4.10156C1.84015 0 0 1.84015 0 4.10156V23.8984C0 26.1599 1.84015 28 4.10156 28H23.8984C26.1599 28 28 26.1599 28 23.8984V4.10156C28 1.84015 26.1599 0 23.8984 0ZM9.89844 22.2031H6.61719V10.7188H9.89844V22.2031ZM9.89844 9.07812H6.61719V5.79688H9.89844V9.07812ZM21.3828 22.2031H18.1016V15.6406C18.1016 14.7361 17.3654 14 16.4609 14C15.5565 14 14.8203 14.7361 14.8203 15.6406V22.2031H11.5391V10.7188H14.8203V11.3372C15.6799 11.0699 16.2383 10.7188 17.2812 10.7188C19.5066 10.7211 21.3828 12.7174 21.3828 15.0767V22.2031Z" fill="#393E46"/>
</svg>
