<svg width="20" height="20" viewBox="0 0 20 20" fill="none" xmlns="http://www.w3.org/2000/svg">
<path d="M20 10C20 15.5229 15.5229 20 10 20C4.47708 20 0 15.5229 0 10C0 4.47708 4.47708 0 10 0C15.5229 0 20 4.47708 20 10Z" fill="url(#paint0_radial)"/>
<path d="M13.7219 2.86126C13.2118 3.3886 12.5235 3.55752 11.8964 3.43209C11.8471 3.38342 11.7853 3.35244 11.72 3.33916C11.719 3.3352 11.7178 3.33138 11.7168 3.32742L10.3494 1.96847C10.3484 1.9645 10.3473 1.96069 10.3462 1.95672C10.256 1.59646 9.74395 1.59646 9.65377 1.95672C9.27306 3.47817 7.36861 3.98843 6.27807 2.86126C6.01989 2.59438 5.57632 2.85043 5.6784 3.20748C6.10931 4.71551 4.71511 6.10955 3.20724 5.67864C2.85018 5.57671 2.59414 6.02013 2.86102 6.27831C3.98818 7.36886 3.47793 9.27331 1.95647 9.65401C1.59621 9.74435 1.59621 10.2563 1.95647 10.3465C1.96044 10.3475 1.96441 10.3486 1.96822 10.3497L3.32717 11.7172C3.33114 11.7181 3.33495 11.7193 3.33892 11.7202C3.3522 11.7857 3.38317 11.8473 3.432 11.8966C3.55727 12.5237 3.38836 13.2121 2.86102 13.7222C2.64007 13.9359 2.77755 14.2764 3.03405 14.3295L8.53316 19.893C9.01199 19.9633 9.50164 20.0002 9.99999 20.0002C15.5228 20.0002 20 15.523 20 10.0002C20 9.50936 19.964 9.02688 19.8956 8.55492L14.3292 3.03429C14.2761 2.77779 13.9357 2.64031 13.7219 2.86126Z" fill="url(#paint1_linear)"/>
<path d="M10.3462 1.95672C10.7269 3.47817 12.6314 3.98843 13.7219 2.86126C13.9801 2.59438 14.4237 2.85043 14.3216 3.20748C13.8907 4.71551 15.2849 6.10955 16.7927 5.67864C17.15 5.57671 17.4058 6.02013 17.139 6.27831C16.0118 7.36886 16.5221 9.27331 18.0435 9.65401C18.4038 9.74435 18.4038 10.2563 18.0435 10.3465C16.5221 10.7273 16.0118 12.6318 17.139 13.7222C17.4058 13.9805 17.1498 14.4239 16.7927 14.3218C15.2849 13.8909 13.8907 15.2851 14.3216 16.793C14.4237 17.1502 13.9801 17.4062 13.7219 17.1392C12.6314 16.012 10.7269 16.5225 10.3462 18.0438C10.256 18.4042 9.74395 18.4042 9.65377 18.0438C9.27306 16.5225 7.36861 16.012 6.27807 17.1392C6.01989 17.4062 5.57632 17.1502 5.6784 16.793C6.10931 15.2851 4.71511 13.8909 3.20724 14.3218C2.85018 14.4239 2.59414 13.9805 2.86102 13.7222C3.98818 12.6318 3.47793 10.7273 1.95647 10.3465C1.59621 10.2563 1.59621 9.74435 1.95647 9.65401C3.47793 9.27331 3.98818 7.36886 2.86102 6.27831C2.59414 6.02013 2.85018 5.57671 3.20724 5.67864C4.71511 6.1097 6.10931 4.71551 5.6784 3.20748C5.57632 2.85043 6.01989 2.59438 6.27807 2.86126C7.36861 3.98843 9.27306 3.47817 9.65377 1.95672C9.74395 1.59646 10.256 1.59646 10.3462 1.95672Z" fill="white"/>
<path d="M10.3462 1.95672C10.7269 3.47817 12.6314 3.98843 13.7219 2.86126C13.9801 2.59438 14.4237 2.85043 14.3216 3.20748C13.8907 4.71551 15.2849 6.10955 16.7927 5.67864C17.15 5.57671 17.4058 6.02013 17.139 6.27831C16.0118 7.36886 16.5221 9.27331 18.0435 9.65401C18.4038 9.74435 18.4038 10.2563 18.0435 10.3465C16.5221 10.7273 16.0118 12.6318 17.139 13.7222C17.4058 13.9805 17.1498 14.4239 16.7927 14.3218C15.2849 13.8909 13.8907 15.2851 14.3216 16.793C14.4237 17.1502 13.9801 17.4062 13.7219 17.1392C12.6314 16.012 10.7269 16.5225 10.3462 18.0438C10.256 18.4042 9.74395 18.4042 9.65377 18.0438C9.27306 16.5225 7.36861 16.012 6.27807 17.1392C6.01989 17.4062 5.57632 17.1502 5.6784 16.793C6.10931 15.2851 4.71511 13.8909 3.20724 14.3218C2.85018 14.4239 2.59414 13.9805 2.86102 13.7222C3.98818 12.6318 3.47793 10.7273 1.95647 10.3465C1.59621 10.2563 1.59621 9.74435 1.95647 9.65401C3.47793 9.27331 3.98818 7.36886 2.86102 6.27831C2.59414 6.02013 2.85018 5.57671 3.20724 5.67864C4.71511 6.1097 6.10931 4.71551 5.6784 3.20748C5.57632 2.85043 6.01989 2.59438 6.27807 2.86126C7.36861 3.98843 9.27306 3.47817 9.65377 1.95672C9.74395 1.59646 10.256 1.59646 10.3462 1.95672Z" fill="url(#paint2_radial)"/>
<path d="M16.7798 10C16.7798 13.7444 13.7444 16.7798 10 16.7798C6.25565 16.7798 3.22021 13.7444 3.22021 10C3.22021 6.25565 6.25565 3.22021 10 3.22021C13.7444 3.22021 16.7798 6.25565 16.7798 10Z" fill="url(#paint3_radial)"/>
<path d="M15.609 10.0001C15.609 13.0978 13.0977 15.6091 10 15.6091C6.90231 15.6091 4.39102 13.0978 4.39102 10.0001C4.39102 6.9024 6.90231 4.39111 10 4.39111C13.0977 4.39111 15.609 6.9024 15.609 10.0001Z" fill="url(#paint4_radial)"/>
<path d="M15.076 9.99982C15.076 12.8032 12.8033 15.0758 10 15.0758C7.19666 15.0758 4.92401 12.8032 4.92401 9.99982C4.92401 7.19647 7.19666 4.92383 10 4.92383C12.8033 4.92383 15.076 7.19647 15.076 9.99982Z" fill="url(#paint5_linear)"/>
<defs>
<radialGradient id="paint0_radial" cx="0" cy="0" r="1" gradientUnits="userSpaceOnUse" gradientTransform="translate(7.21568 5.37254) scale(14.8624)">
<stop stop-color="#FF6E3A"/>
<stop offset="0.2336" stop-color="#FF6B3C"/>
<stop offset="0.418" stop-color="#FF6143"/>
<stop offset="0.5857" stop-color="#FF504E"/>
<stop offset="0.7434" stop-color="#FF395E"/>
<stop offset="0.8928" stop-color="#FF1B72"/>
<stop offset="1" stop-color="#FF0084"/>
</radialGradient>
<linearGradient id="paint1_linear" x1="19.7778" y1="19.778" x2="9.2716" y2="9.27184" gradientUnits="userSpaceOnUse">
<stop stop-color="#FF0084" stop-opacity="0"/>
<stop offset="0.0737" stop-color="#F4087E" stop-opacity="0.07451"/>
<stop offset="0.3347" stop-color="#D2216B" stop-opacity="0.333333"/>
<stop offset="0.583" stop-color="#BA335E" stop-opacity="0.584314"/>
<stop offset="0.8111" stop-color="#AB3D56" stop-opacity="0.811765"/>
<stop offset="1" stop-color="#A64153"/>
</linearGradient>
<radialGradient id="paint2_radial" cx="0" cy="0" r="1" gradientUnits="userSpaceOnUse" gradientTransform="translate(10.0623 10.0002) scale(10.7698)">
<stop stop-color="#FFD459"/>
<stop offset="0.2794" stop-color="#FFD55B" stop-opacity="0.721569"/>
<stop offset="0.4354" stop-color="#FFD763" stop-opacity="0.564706"/>
<stop offset="0.5609" stop-color="#FFDA71" stop-opacity="0.439216"/>
<stop offset="0.6702" stop-color="#FFDF85" stop-opacity="0.329412"/>
<stop offset="0.7691" stop-color="#FFE69E" stop-opacity="0.231373"/>
<stop offset="0.8603" stop-color="#FFEEBE" stop-opacity="0.141176"/>
<stop offset="0.944" stop-color="#FFF8E2" stop-opacity="0.054902"/>
<stop offset="1" stop-color="white" stop-opacity="0"/>
</radialGradient>
<radialGradient id="paint3_radial" cx="0" cy="0" r="1" gradientUnits="userSpaceOnUse" gradientTransform="translate(10 10.0318) scale(7.25494)">
<stop stop-color="#FFB400"/>
<stop offset="0.3726" stop-color="#FFB502" stop-opacity="0.627451"/>
<stop offset="0.5069" stop-color="#FFB709" stop-opacity="0.494118"/>
<stop offset="0.6026" stop-color="#FFBA14" stop-opacity="0.396078"/>
<stop offset="0.68" stop-color="#FFBF25" stop-opacity="0.321569"/>
<stop offset="0.7463" stop-color="#FFC53B" stop-opacity="0.254902"/>
<stop offset="0.805" stop-color="#FFCD57" stop-opacity="0.196078"/>
<stop offset="0.8581" stop-color="#FFD777" stop-opacity="0.141176"/>
<stop offset="0.9069" stop-color="#FFE29D" stop-opacity="0.094118"/>
<stop offset="0.9523" stop-color="#FFEFC8" stop-opacity="0.047059"/>
<stop offset="0.9926" stop-color="#FFFCF6" stop-opacity="0.01"/>
<stop offset="1" stop-color="white" stop-opacity="0"/>
</radialGradient>
<radialGradient id="paint4_radial" cx="0" cy="0" r="1" gradientUnits="userSpaceOnUse" gradientTransform="translate(8.50738 7.77382) scale(7.56556)">
<stop stop-color="#FFD459"/>
<stop offset="0.2296" stop-color="#FFD355"/>
<stop offset="0.4362" stop-color="#FFCF4A"/>
<stop offset="0.634" stop-color="#FFC838"/>
<stop offset="0.825" stop-color="#FFBF1F"/>
<stop offset="1" stop-color="#FFB400"/>
</radialGradient>
<linearGradient id="paint5_linear" x1="10.5768" y1="10.6073" x2="3.20424" y2="2.84259" gradientUnits="userSpaceOnUse">
<stop stop-color="white" stop-opacity="0"/>
<stop offset="0.9286" stop-color="white" stop-opacity="0.929412"/>
<stop offset="1" stop-color="white"/>
</linearGradient>
</defs>
</svg>
