<svg width="28" height="28" viewBox="0 0 28 28" fill="none" xmlns="http://www.w3.org/2000/svg">
<path d="M10.0991 22.513C9.90445 22.5493 9.81941 22.6406 9.8438 22.7863C9.86806 22.9321 9.97743 22.9808 10.1718 22.9321C10.3665 22.8836 10.4515 22.7983 10.4271 22.6769C10.4029 22.5433 10.2935 22.4885 10.0991 22.513Z" fill="#393E46"/>
<path d="M9.06003 22.6592C8.86555 22.6592 8.76837 22.7257 8.76837 22.8596C8.76837 23.0176 8.87174 23.0842 9.07823 23.06C9.27271 23.06 9.37002 22.9931 9.37002 22.8596C9.37002 22.7018 9.26665 22.6347 9.06003 22.6592Z" fill="#393E46"/>
<path d="M7.63817 22.6041C7.58965 22.7378 7.66869 22.8287 7.87511 22.8776C8.0574 22.9502 8.1729 22.9139 8.22142 22.7681C8.25794 22.6346 8.1789 22.5376 7.98448 22.4765C7.80213 22.428 7.68676 22.47 7.63817 22.6041Z" fill="#393E46"/>
<path d="M26.4596 1.54022C25.4326 0.513471 24.1964 0 22.7499 0H5.24997C3.80392 0 2.56723 0.513471 1.54022 1.54022C0.513472 2.56717 0 3.80385 0 5.24996V22.7501C0 24.1963 0.513472 25.4329 1.54022 26.4596C2.56717 27.4866 3.80392 28 5.24997 28H9.33329C9.60043 28 9.80111 27.9908 9.93475 27.973C10.0683 27.9546 10.2019 27.8755 10.3357 27.7356C10.4695 27.596 10.5361 27.3924 10.5361 27.1251C10.5361 27.0888 10.5329 26.6752 10.5269 25.8854C10.5208 25.0952 10.5177 24.4695 10.5177 24.0076L10.0985 24.0805C9.83112 24.1291 9.49387 24.1505 9.08671 24.1443C8.67973 24.1382 8.25731 24.0958 7.81988 24.0168C7.3822 23.9377 6.97523 23.7554 6.59845 23.4701C6.22187 23.1842 5.95454 22.8107 5.79651 22.349L5.61416 21.9294C5.49266 21.6502 5.30137 21.3402 5.04003 21.0002C4.7787 20.6597 4.51443 20.4288 4.24709 20.3073L4.11946 20.2161C4.03448 20.1554 3.9555 20.0822 3.88252 19.9972C3.80967 19.9119 3.75501 19.8268 3.71855 19.742C3.6821 19.6567 3.71236 19.5868 3.80967 19.532C3.90697 19.4774 4.083 19.4503 4.33833 19.4503L4.70278 19.5049C4.94592 19.5534 5.24652 19.6991 5.60522 19.9423C5.96367 20.1853 6.25833 20.5013 6.48927 20.89C6.76893 21.3884 7.10586 21.768 7.50102 22.0293C7.89586 22.2909 8.29396 22.4215 8.69493 22.4215C9.0959 22.4215 9.44222 22.3911 9.734 22.3306C10.0255 22.2697 10.2989 22.1783 10.5543 22.0568C10.6636 21.2427 10.9614 20.6164 11.4474 20.179C10.7548 20.106 10.132 19.9968 9.57885 19.8508C9.02605 19.7049 8.45479 19.4681 7.86547 19.1398C7.27589 18.8116 6.78681 18.4048 6.39791 17.9184C6.00907 17.432 5.68995 16.794 5.441 16.0043C5.19193 15.2142 5.06736 14.3026 5.06736 13.2697C5.06736 11.7994 5.54757 10.5474 6.5076 9.51455C6.05785 8.40869 6.10031 7.16926 6.6351 5.79587C6.98755 5.68643 7.51022 5.76854 8.20285 6.04201C8.89561 6.31566 9.40282 6.54967 9.725 6.74383C10.0472 6.93806 10.3053 7.10228 10.4998 7.2361C11.6303 6.92012 12.7968 6.76216 13.9999 6.76216C15.2028 6.76216 16.3696 6.92012 17.5001 7.2361L18.1928 6.79861C18.667 6.50682 19.2259 6.23949 19.8701 5.99655C20.5142 5.75354 21.0063 5.68662 21.3467 5.79606C21.8934 7.16945 21.9423 8.40888 21.4922 9.51467C22.4522 10.5477 22.9326 11.7996 22.9326 13.2699C22.9326 14.303 22.808 15.2176 22.5589 16.0135C22.31 16.8095 21.9882 17.4477 21.5929 17.9277C21.1981 18.4078 20.7058 18.8116 20.1165 19.1399C19.527 19.4679 18.9558 19.7052 18.4028 19.8507C17.8498 19.9967 17.227 20.1063 16.5343 20.1793C17.1659 20.726 17.4818 21.5886 17.4818 22.7676V27.1245C17.4818 27.3312 17.5119 27.4982 17.5727 27.6258C17.6339 27.7534 17.7309 27.8412 17.8646 27.8902C17.9988 27.9387 18.1167 27.9691 18.2203 27.9811C18.3238 27.9933 18.4724 27.9995 18.6669 27.9995H22.7502C24.1963 27.9995 25.433 27.486 26.4595 26.459C27.4865 25.4321 27.9999 24.1953 27.9999 22.7493V5.24996C27.9998 3.80385 27.4863 2.56697 26.4596 1.54022Z" fill="#393E46"/>
<path d="M5.5416 20.3804C5.45662 20.4409 5.46875 20.5381 5.57813 20.6718C5.69982 20.7932 5.79693 20.8116 5.86991 20.7264C5.95489 20.6659 5.94276 20.5686 5.8332 20.4347C5.71176 20.3255 5.61458 20.3072 5.5416 20.3804Z" fill="#393E46"/>
<path d="M4.94026 19.9244C4.90387 20.0096 4.94639 20.0826 5.06789 20.1431C5.16501 20.2041 5.24424 20.1921 5.30484 20.1069C5.34123 20.0216 5.29871 19.9487 5.1772 19.8877C5.0557 19.8512 4.97672 19.8634 4.94026 19.9244Z" fill="#393E46"/>
<path d="M6.10691 21.0912C5.99741 21.1517 5.99741 21.2614 6.10691 21.4192C6.21628 21.5774 6.31939 21.6198 6.41676 21.5468C6.5262 21.4616 6.5262 21.3462 6.41676 21.2003C6.31965 21.0427 6.21628 21.0058 6.10691 21.0912Z" fill="#393E46"/>
<path d="M6.74507 21.911C6.63563 22.0084 6.65977 22.1234 6.81798 22.2575C6.96362 22.403 7.08519 22.4214 7.18243 22.3117C7.27973 22.2148 7.25541 22.0994 7.10951 21.9657C6.96388 21.8201 6.84231 21.8017 6.74507 21.911Z" fill="#393E46"/>
</svg>
