<svg width="130" height="99" viewBox="0 0 130 99" fill="none" xmlns="http://www.w3.org/2000/svg">
<path d="M109 0H10V99H109V0Z" fill="#F7DF1E"/>
<path d="M76.5029 77.3444C78.497 80.6004 81.0915 82.9936 85.68 82.9936C89.5347 82.9936 91.9972 81.0671 91.9972 78.4051C91.9972 75.2151 89.4672 74.0852 85.2243 72.2294L82.8986 71.2315C76.1855 68.3715 71.7257 64.7886 71.7257 57.2144C71.7257 50.2372 77.0419 44.9258 85.35 44.9258C91.2649 44.9258 95.5172 46.9844 98.5815 52.3744L91.3372 57.0258C89.7422 54.1658 88.0215 53.0391 85.35 53.0391C82.6252 53.0391 80.8982 54.7676 80.8982 57.0258C80.8982 59.8166 82.6267 60.9465 86.6182 62.6751L88.9439 63.6713C96.8482 67.0609 101.311 70.5165 101.311 78.2856C101.311 86.6614 94.7315 91.2499 85.8953 91.2499C77.2556 91.2499 71.6739 87.1328 68.9427 81.7365L76.5029 77.3444ZM43.6396 78.1505C45.101 80.7434 46.4305 82.9355 49.6267 82.9355C52.6832 82.9355 54.6113 81.7396 54.6113 77.0898V45.4569H63.9142V77.2155C63.9142 86.8484 58.2665 91.2326 50.0228 91.2326C42.5742 91.2326 38.2606 87.3779 36.0669 82.7351L43.6396 78.1505Z" fill="black"/>
</svg>
