<svg width="28" height="28" viewBox="0 0 28 28" fill="none" xmlns="http://www.w3.org/2000/svg">
<path d="M20.9611 0.0107422H7.01665C3.15305 0.0107422 0 3.1638 0 7.0274V20.9941C0 24.8355 3.15305 27.9885 7.01665 27.9885H20.9833C24.8469 27.9885 28 24.8355 28 20.9719V7.0274C27.9778 3.1638 24.8247 0.0107422 20.9611 0.0107422ZM20.9389 10.4913C20.9389 10.6467 20.9389 10.8022 20.9389 10.9576C20.9389 15.6206 17.3418 20.9941 10.747 20.9941C8.72641 20.9941 6.83902 20.4168 5.26249 19.4176C5.55115 19.4398 5.81761 19.462 6.10627 19.462C7.79381 19.462 9.32593 18.9069 10.5472 17.9521C8.97066 17.9299 7.66059 16.9084 7.19429 15.5096C7.41634 15.554 7.63838 15.5762 7.86043 15.5762C8.1935 15.5762 8.52657 15.5318 8.81523 15.4429C7.2165 15.1099 5.99524 13.6888 5.99524 11.979V11.9346C6.43933 12.2011 7.01665 12.3565 7.59397 12.3787C6.63918 11.757 5.99524 10.669 5.99524 9.4477C5.99524 8.80376 6.17288 8.20424 6.48374 7.67133C8.26011 9.80297 10.8803 11.2019 13.8557 11.3573C13.7891 11.0908 13.7669 10.8244 13.7669 10.5579C13.7669 8.60392 15.3656 7.0274 17.3418 7.0274C18.3632 7.0274 19.2958 7.44928 19.9619 8.13763C20.7835 7.98219 21.5385 7.69353 22.2268 7.27165C21.9604 8.09322 21.383 8.78156 20.6503 9.22565C21.383 9.13683 22.0714 8.9592 22.7153 8.67054C22.2268 9.38108 21.6273 10.0028 20.9389 10.4913Z" fill="#393E46"/>
</svg>
