<svg width="40" height="35" viewBox="0 0 40 35" fill="none" xmlns="http://www.w3.org/2000/svg">
<g filter="url(#filter0_d)">
<path d="M9.89258 26H4.61914V0.40625H9.89258V26ZM35.8203 13.7832C35.8203 16.3027 35.375 18.5117 34.4844 20.4102C33.5938 22.3086 32.3164 23.7734 30.6523 24.8047C29 25.8359 27.1016 26.3516 24.957 26.3516C22.8359 26.3516 20.9434 25.8418 19.2793 24.8223C17.6152 23.8027 16.3262 22.3496 15.4121 20.4629C14.498 18.5645 14.0352 16.3848 14.0234 13.9238V12.6582C14.0234 10.1387 14.4746 7.92383 15.377 6.01367C16.291 4.0918 17.5742 2.62109 19.2266 1.60156C20.8906 0.570312 22.7891 0.0546875 24.9219 0.0546875C27.0547 0.0546875 28.9473 0.570312 30.5996 1.60156C32.2637 2.62109 33.5469 4.0918 34.4492 6.01367C35.3633 7.92383 35.8203 10.1328 35.8203 12.6406V13.7832ZM30.4766 12.623C30.4766 9.93945 29.9961 7.90039 29.0352 6.50586C28.0742 5.11133 26.7031 4.41406 24.9219 4.41406C23.1523 4.41406 21.7871 5.10547 20.8262 6.48828C19.8652 7.85938 19.3789 9.875 19.3672 12.5352V13.7832C19.3672 16.3965 19.8477 18.4238 20.8086 19.8652C21.7695 21.3066 23.1523 22.0273 24.957 22.0273C26.7266 22.0273 28.0859 21.3359 29.0352 19.9531C29.9844 18.5586 30.4648 16.5312 30.4766 13.8711V12.623Z" fill="#32E0C4"/>
</g>
<defs>
<filter id="filter0_d" x="0.619141" y="0.0546875" width="39.2012" height="34.2969" filterUnits="userSpaceOnUse" color-interpolation-filters="sRGB">
<feFlood flood-opacity="0" result="BackgroundImageFix"/>
<feColorMatrix in="SourceAlpha" type="matrix" values="0 0 0 0 0 0 0 0 0 0 0 0 0 0 0 0 0 0 127 0"/>
<feOffset dy="4"/>
<feGaussianBlur stdDeviation="2"/>
<feColorMatrix type="matrix" values="0 0 0 0 0 0 0 0 0 0 0 0 0 0 0 0 0 0 0.25 0"/>
<feBlend mode="normal" in2="BackgroundImageFix" result="effect1_dropShadow"/>
<feBlend mode="normal" in="SourceGraphic" in2="effect1_dropShadow" result="shape"/>
</filter>
</defs>
</svg>
